<svg width="24" height="24" viewBox="0 0 24 24" fill="none" xmlns="http://www.w3.org/2000/svg">
<path fill-rule="evenodd" clip-rule="evenodd" d="M17.3876 2.39298C17.6318 1.83158 18.497 1.87168 18.6526 2.51328L19.1092 4.39639C19.1685 4.64073 19.3593 4.83151 19.6036 4.89075L21.4867 5.34738C22.1711 5.51333 22.1711 6.48667 21.4867 6.65262L19.6036 7.10924C19.3593 7.16849 19.1685 7.35927 19.1092 7.60361L18.6526 9.48672C18.4867 10.1711 17.5133 10.1711 17.3474 9.48672L16.8908 7.60361C16.8871 7.58834 16.8828 7.57328 16.8781 7.55845C16.8074 7.33594 16.6255 7.16479 16.3964 7.10925L14.5133 6.65262L14.5053 6.65064C13.8289 6.47908 13.8316 5.51268 14.5133 5.34738L16.3964 4.89076C16.6407 4.83151 16.8315 4.64073 16.8908 4.39639L17.3474 2.51328C17.3578 2.47051 17.3713 2.43041 17.3876 2.39298ZM3 14C3 14.5523 2.55228 15 2 15C1.44772 15 1 14.5523 1 14C1 13.4477 1.44772 13 2 13C2.55228 13 3 13.4477 3 14ZM22 12C22.5523 12 23 11.5523 23 11C23 10.4477 22.5523 10 22 10C21.4477 10 21 10.4477 21 11C21 11.5523 21.4477 12 22 12ZM6 7.2C6.66274 7.2 7.2 6.66274 7.2 6C7.2 5.33726 6.66274 4.8 6 4.8C5.33726 4.8 4.8 5.33726 4.8 6C4.8 6.66274 5.33726 7.2 6 7.2ZM8.86576 6.89005C8.58479 7.79572 7.88631 8.51769 6.99533 8.83094C6.99842 8.8604 7 8.89026 7 8.92046L7 16.0795C7 16.1097 6.99842 16.1396 6.99533 16.1691C7.8863 16.4823 8.58479 17.2043 8.86576 18.1099C8.90955 18.1034 8.95437 18.1 8.99998 18.1H15C15.0456 18.1 15.0904 18.1034 15.1342 18.11C15.4262 17.1689 16.1689 16.4262 17.1099 16.1342C17.1034 16.0904 17.1 16.0456 17.1 16V13C17.1 12.5029 17.5029 12.1 18 12.1C18.497 12.1 18.9 12.5029 18.9 13V16C18.9 16.0456 18.8966 16.0904 18.89 16.1342C20.1123 16.5134 21 17.653 21 19C21 20.6569 19.6569 22 18 22C16.653 22 15.5134 21.1123 15.1342 19.8901C15.0904 19.8966 15.0456 19.9 15 19.9H8.99998C8.95436 19.9 8.90955 19.8966 8.86576 19.8901C8.48657 21.1123 7.34695 22 6 22C4.34315 22 3 20.6569 3 19C3 17.692 3.83704 16.5796 5.00467 16.1691C5.00158 16.1396 5 16.1097 5 16.0795V8.92046C5 8.89026 5.00158 8.86039 5.00467 8.83094C3.83704 8.42042 3 7.30796 3 6C3 4.34315 4.34315 3 6 3C7.34695 3 8.48657 3.88768 8.86576 5.10995C8.90956 5.10339 8.9544 5.1 9.00002 5.1H11C11.4971 5.1 11.9 5.50294 11.9 6C11.9 6.49705 11.4971 6.9 11 6.9H9.00002C8.9544 6.9 8.90957 6.8966 8.86576 6.89005ZM7.2 19C7.2 19.6627 6.66274 20.2 6 20.2C5.33726 20.2 4.8 19.6627 4.8 19C4.8 18.3373 5.33726 17.8 6 17.8C6.66274 17.8 7.2 18.3373 7.2 19ZM18 20.2C18.6627 20.2 19.2 19.6627 19.2 19C19.2 18.3373 18.6627 17.8 18 17.8C17.3373 17.8 16.8 18.3373 16.8 19C16.8 19.6627 17.3373 20.2 18 20.2Z" fill="#74818C"/>
</svg>
