<svg width="24" height="24" viewBox="0 0 24 24" fill="none" xmlns="http://www.w3.org/2000/svg">
<path d="M12 22C14.7614 22 17.2614 20.8807 19.0711 19.0711C20.8807 17.2614 22 14.7614 22 12C22 9.2386 20.8807 6.7386 19.0711 4.92893C17.2614 3.11929 14.7614 2 12 2C9.2386 2 6.7386 3.11929 4.92893 4.92893C3.11929 6.7386 2 9.2386 2 12C2 14.7614 3.11929 17.2614 4.92893 19.0711C6.7386 20.8807 9.2386 22 12 22Z" stroke="#74818C" stroke-width="2" stroke-linejoin="round"/>
<path d="M15.002 8.00149C14.2635 7.44703 13.3858 7.10794 12.4664 7.0218C11.5469 6.93566 10.6216 7.10584 9.79293 7.51348C8.96428 7.92112 8.26472 8.55029 7.77181 9.33122C7.27889 10.1121 7.01189 11.0143 7.00039 11.9377C6.98889 12.8612 7.23335 13.7697 7.70667 14.5627C8.17998 15.3556 8.86366 16.002 9.6819 16.4302C10.5001 16.8583 11.421 17.0515 12.3423 16.9883C13.2636 16.9251 14.1494 16.6079 14.9015 16.072" stroke="#74818C" stroke-width="2" stroke-linecap="round"/>
</svg>
