<svg width="24" height="24" viewBox="0 0 24 24" fill="none" xmlns="http://www.w3.org/2000/svg">
<path fill-rule="evenodd" clip-rule="evenodd" d="M12.0002 5.00001C12.4306 5.00001 12.8128 5.27544 12.9489 5.68378L14.2908 9.70944L18.3164 11.0513C18.7248 11.1874 19.0002 11.5696 19.0002 12C19.0002 12.4304 18.7248 12.8126 18.3164 12.9487L14.2908 14.2906L12.9489 18.3162C12.8128 18.7246 12.4306 19 12.0002 19C11.5698 19 11.1876 18.7246 11.0515 18.3162L9.70962 14.2906L5.68396 12.9487C5.27562 12.8126 5.00019 12.4304 5.00019 12C5.00019 11.5696 5.27562 11.1874 5.68396 11.0513L9.70962 9.70944L11.0515 5.68378C11.1876 5.27544 11.5698 5.00001 12.0002 5.00001ZM12.0002 9.16228L11.4489 10.8162C11.3493 11.1148 11.115 11.3492 10.8164 11.4487L9.16247 12L10.8164 12.5513C11.115 12.6509 11.3493 12.8852 11.4489 13.1838L12.0002 14.8377L12.5515 13.1838C12.651 12.8852 12.8854 12.6509 13.184 12.5513L14.8379 12L13.184 11.4487C12.8854 11.3492 12.651 11.1148 12.5515 10.8162L12.0002 9.16228Z" fill="#74818C"/>
<path fill-rule="evenodd" clip-rule="evenodd" d="M13.9264 3.1516C14.1029 2.62829 14.6703 2.3472 15.1936 2.52376C15.6069 2.6632 16.0108 2.82945 16.4026 3.02135C16.8985 3.26431 17.1036 3.86333 16.8607 4.3593C16.6177 4.85527 16.0187 5.06038 15.5227 4.81742C15.2089 4.66369 14.8853 4.53051 14.5542 4.4188C14.0309 4.24225 13.7498 3.6749 13.9264 3.1516ZM10.0345 3.15948C10.2137 3.68189 9.93544 4.25064 9.41303 4.42982C9.24874 4.48617 9.08507 4.54822 8.92223 4.6161C8.75939 4.68398 8.6001 4.75655 8.44444 4.83357C7.94944 5.0785 7.3496 4.87577 7.10468 4.38077C6.85975 3.88577 7.06248 3.28593 7.55748 3.04101C7.75168 2.94492 7.95014 2.85451 8.15272 2.77007C8.3553 2.68562 8.55921 2.6083 8.76416 2.538C9.28657 2.35882 9.85533 2.63707 10.0345 3.15948ZM19.6194 7.10449C20.1144 6.85957 20.7143 7.06229 20.9592 7.5573C21.0553 7.7515 21.1457 7.94995 21.2301 8.15254C21.3146 8.35512 21.3919 8.55903 21.4622 8.76398C21.6414 9.28639 21.3631 9.85514 20.8407 10.0343C20.3183 10.2135 19.7496 9.93526 19.5704 9.41285C19.514 9.24856 19.452 9.08489 19.3841 8.92205C19.3162 8.75921 19.2436 8.59992 19.1666 8.44426C18.9217 7.94925 19.1244 7.34942 19.6194 7.10449ZM4.35949 7.13953C4.85546 7.38249 5.06056 7.98151 4.8176 8.47749C4.66388 8.79129 4.5307 9.11487 4.41899 9.44597C4.24243 9.96927 3.67508 10.2504 3.15178 10.0738C2.62848 9.89725 2.34738 9.3299 2.52394 8.8066C2.66339 8.39328 2.82963 7.98937 3.02153 7.59764C3.26449 7.10167 3.86351 6.89657 4.35949 7.13953ZM20.8486 13.9262C21.3719 14.1028 21.653 14.6701 21.4764 15.1934C21.337 15.6067 21.1707 16.0106 20.9788 16.4024C20.7359 16.8983 20.1369 17.1034 19.6409 16.8605C19.1449 16.6175 18.9398 16.0185 19.1828 15.5225C19.3365 15.2087 19.4697 14.8851 19.5814 14.554C19.7579 14.0307 20.3253 13.7496 20.8486 13.9262ZM3.15966 13.9657C3.68207 13.7865 4.25083 14.0648 4.43 14.5872C4.48635 14.7515 4.54841 14.9151 4.61629 15.078C4.68416 15.2408 4.75673 15.4001 4.83376 15.5558C5.07868 16.0508 4.87596 16.6506 4.38095 16.8955C3.88595 17.1404 3.28612 16.9377 3.04119 16.4427C2.9451 16.2485 2.8547 16.0501 2.77025 15.8475C2.6858 15.6449 2.60848 15.441 2.53819 15.236C2.35901 14.7136 2.63725 14.1449 3.15966 13.9657ZM16.8957 19.6192C17.1406 20.1142 16.9379 20.7141 16.4429 20.959C16.2487 21.0551 16.0502 21.1455 15.8477 21.2299C15.6451 21.3144 15.4412 21.3917 15.2362 21.462C14.7138 21.6412 14.1451 21.3629 13.9659 20.8405C13.7867 20.3181 14.0649 19.7494 14.5873 19.5702C14.7516 19.5138 14.9153 19.4518 15.0781 19.3839C15.241 19.316 15.4003 19.2435 15.5559 19.1664C16.0509 18.9215 16.6508 19.1242 16.8957 19.6192ZM7.13971 19.6407C7.38267 19.1447 7.9817 18.9396 8.47767 19.1826C8.79147 19.3363 9.11505 19.4695 9.44615 19.5812C9.96945 19.7578 10.2505 20.3251 10.074 20.8484C9.89743 21.3717 9.33009 21.6528 8.80678 21.4763C8.39346 21.3368 7.98956 21.1706 7.59783 20.9787C7.10185 20.7357 6.89675 20.1367 7.13971 19.6407Z" fill="#74818C"/>
</svg>
