<svg width="24" height="24" viewBox="0 0 24 24" fill="none" xmlns="http://www.w3.org/2000/svg">
<path d="M12 22C14.7614 22 17.2614 20.8807 19.0711 19.0711C20.8807 17.2614 22 14.7614 22 12C22 9.2386 20.8807 6.7386 19.0711 4.92893C17.2614 3.11929 14.7614 2 12 2C9.2386 2 6.7386 3.11929 4.92893 4.92893C3.11929 6.7386 2 9.2386 2 12C2 14.7614 3.11929 17.2614 4.92893 19.0711C6.7386 20.8807 9.2386 22 12 22Z" stroke="#74818C" stroke-width="2" stroke-linejoin="round"/>
<path d="M11.1432 14.2411V13.7404C11.1432 13.3483 11.1894 13.0066 11.2817 12.7152C11.3741 12.4238 11.5289 12.151 11.7462 11.8967C11.9635 11.6371 12.2569 11.3669 12.6263 11.0861C13.0066 10.7947 13.3081 10.543 13.5308 10.3311C13.759 10.1192 13.922 9.90728 14.0198 9.69536C14.123 9.47815 14.1746 9.22649 14.1746 8.9404C14.1746 8.49007 14.0171 8.14834 13.702 7.91523C13.3923 7.67682 12.955 7.55762 12.39 7.55762C11.8902 7.55762 11.4203 7.62649 10.9802 7.76424C10.5402 7.90199 10.1055 8.07417 9.67637 8.28079L9 6.88212C9.49437 6.61722 10.0295 6.4053 10.6054 6.24636C11.1867 6.08212 11.825 6 12.5204 6C13.6286 6 14.4843 6.26225 15.0873 6.78675C15.6958 7.31126 16 8.00265 16 8.86093C16 9.33245 15.9239 9.73775 15.7718 10.0768C15.6197 10.4106 15.3943 10.7205 15.0955 11.0066C14.8021 11.2874 14.4463 11.5841 14.0279 11.8967C13.6857 12.1616 13.4222 12.3921 13.2375 12.5881C13.0582 12.7788 12.9333 12.9722 12.8626 13.1682C12.7974 13.3642 12.7648 13.6 12.7648 13.8755V14.2411H11.1432ZM10.8335 16.8C10.8335 16.3656 10.9476 16.0609 11.1758 15.8861C11.4094 15.706 11.6946 15.6159 12.0314 15.6159C12.3574 15.6159 12.6372 15.706 12.8708 15.8861C13.1044 16.0609 13.2212 16.3656 13.2212 16.8C13.2212 17.2238 13.1044 17.5311 12.8708 17.7219C12.6372 17.9073 12.3574 18 12.0314 18C11.6946 18 11.4094 17.9073 11.1758 17.7219C10.9476 17.5311 10.8335 17.2238 10.8335 16.8Z" fill="#74818C"/>
</svg>
