<svg width="24" height="24" viewBox="0 0 24 24" fill="none" xmlns="http://www.w3.org/2000/svg">
<path d="M11.9414 12.9414C13.1155 12.9414 14.2786 13.1728 15.3633 13.6221C16.4479 14.0714 17.4335 14.7304 18.2637 15.5605C19.0938 16.3908 19.7529 17.3762 20.2021 18.4609C20.6514 19.5457 20.8828 20.7087 20.8828 21.8828C20.8827 22.4348 20.4348 22.8826 19.8828 22.8828C19.3306 22.8828 18.8829 22.435 18.8828 21.8828C18.8828 20.9713 18.7023 20.0687 18.3535 19.2266C18.0047 18.3845 17.4941 17.6191 16.8496 16.9746C16.2051 16.3301 15.4397 15.8186 14.5977 15.4697C13.7556 15.1209 12.8529 14.9414 11.9414 14.9414C11.03 14.9414 10.1272 15.121 9.28516 15.4697C8.44301 15.8186 7.67775 16.3301 7.0332 16.9746C6.38866 17.6192 5.87715 18.3844 5.52832 19.2266C5.17956 20.0686 5 20.9714 5 21.8828C4.99988 22.435 4.55221 22.8828 4 22.8828C3.44779 22.8828 3.00012 22.435 3 21.8828C3 20.7086 3.23133 19.5457 3.68066 18.4609C4.13 17.3762 4.78888 16.3908 5.61914 15.5605C6.4494 14.7303 7.43475 14.0714 8.51953 13.6221C9.60432 13.1727 10.7672 12.9414 11.9414 12.9414ZM11.9414 2C14.6865 2.00006 16.912 4.22567 16.9121 6.9707C16.912 9.71579 14.6865 11.9413 11.9414 11.9414C9.19626 11.9414 6.97076 9.71583 6.9707 6.9707C6.97083 4.22563 9.19631 2 11.9414 2ZM11.9414 4C10.3009 4 8.97084 5.3302 8.9707 6.9707C8.97076 8.61126 10.3008 9.94141 11.9414 9.94141C13.5819 9.94134 14.912 8.61122 14.9121 6.9707C14.912 5.33024 13.5819 4.00006 11.9414 4Z" fill="#74818C"/>
</svg>
