<svg width="24" height="24" viewBox="0 0 24 24" fill="none" xmlns="http://www.w3.org/2000/svg">
<path d="M9.5 13C10.6162 13 11.7217 13.2203 12.7529 13.6475C13.7841 14.0746 14.7215 14.7 15.5107 15.4893C16.3 16.2785 16.9254 17.2159 17.3525 18.2471C17.7797 19.2783 18 20.3838 18 21.5C18 22.0523 17.5523 22.5 17 22.5C16.4477 22.5 16 22.0523 16 21.5C16 20.6464 15.8315 19.8013 15.5049 19.0127C15.1782 18.2241 14.7003 17.5069 14.0967 16.9033C13.4931 16.2997 12.7759 15.8218 11.9873 15.4951C11.1987 15.1685 10.3536 15 9.5 15C8.64641 15 7.80131 15.1685 7.0127 15.4951C6.22408 15.8218 5.5069 16.2997 4.90332 16.9033C4.29974 17.5069 3.82177 18.2241 3.49512 19.0127C3.16846 19.8013 3 20.6464 3 21.5C3 22.0523 2.55228 22.5 2 22.5C1.44772 22.5 1 22.0523 1 21.5C1 20.3838 1.2203 19.2783 1.64746 18.2471C2.07462 17.2159 2.70003 16.2785 3.48926 15.4893C4.27849 14.7 5.2159 14.0746 6.24707 13.6475C7.27834 13.2203 8.38376 13 9.5 13ZM19.0957 15.4893C19.4862 15.099 20.1193 15.099 20.5098 15.4893C21.2989 16.2785 21.9254 17.216 22.3525 18.2471C22.7795 19.2781 22.999 20.384 22.999 21.5C22.9988 22.052 22.5511 22.4999 21.999 22.5C21.4471 22.4998 20.9993 22.0519 20.999 21.5C20.999 20.6466 20.8315 19.8002 20.5049 19.0117C20.1783 18.2234 19.6991 17.5067 19.0957 16.9033C18.7054 16.5128 18.7052 15.8797 19.0957 15.4893ZM14.9062 4.88965C15.1038 4.37441 15.6817 4.11636 16.1973 4.31348C17.0744 4.64908 17.833 5.23761 18.376 6.00391C18.9188 6.77026 19.2223 7.68133 19.248 8.62012C19.2736 9.55876 19.0205 10.4845 18.5205 11.2793C18.0202 12.0743 17.2951 12.7038 16.4375 13.0869C15.9334 13.3121 15.3416 13.0859 15.1162 12.582C14.8912 12.0778 15.1179 11.4859 15.6221 11.2607C16.1184 11.0389 16.5385 10.6749 16.8281 10.2148C17.1176 9.75474 17.2638 9.21817 17.249 8.6748C17.2341 8.13143 17.0583 7.60375 16.7441 7.16016C16.4298 6.71656 15.9902 6.37593 15.4824 6.18164C14.9668 5.98432 14.7092 5.40536 14.9062 4.88965ZM9.5 3C12.1234 3 14.25 5.12665 14.25 7.75C14.25 10.3734 12.1234 12.5 9.5 12.5C6.87665 12.5 4.75 10.3734 4.75 7.75C4.75 5.12665 6.87665 3 9.5 3ZM9.5 5C7.98122 5 6.75 6.23122 6.75 7.75C6.75 9.26878 7.98122 10.5 9.5 10.5C11.0188 10.5 12.25 9.26878 12.25 7.75C12.25 6.23122 11.0188 5 9.5 5Z" fill="#74818C"/>
</svg>
