<svg width="60" height="60" viewBox="0 0 60 60" fill="none" xmlns="http://www.w3.org/2000/svg">
<path fill-rule="evenodd" clip-rule="evenodd" d="M21.8968 10H38.1032C40.1157 9.99997 41.7766 9.99994 43.1296 10.1105C44.5348 10.2253 45.8266 10.4717 47.0399 11.0899C48.9215 12.0487 50.4513 13.5785 51.4101 15.4601C52.0283 16.6734 52.2747 17.9652 52.3895 19.3704C52.5001 20.7234 52.5 22.3843 52.5 24.3967V33.1019C52.5 35.1143 52.5001 36.7752 52.3895 38.1282C52.2747 39.5334 52.0283 40.8252 51.4101 42.0385C50.4513 43.9201 48.9215 45.4499 47.0399 46.4087C45.8266 47.0269 44.5348 47.2733 43.1296 47.3881C41.7766 47.4987 40.1156 47.4986 38.1032 47.4986H37.5786L30 56.3419L22.4215 47.4986H21.8968C19.8844 47.4986 18.2234 47.4987 16.8704 47.3881C15.4652 47.2733 14.1734 47.0269 12.9601 46.4087C11.0785 45.4499 9.54867 43.9201 8.58994 42.0385C7.97171 40.8252 7.7253 39.5334 7.61049 38.1282C7.49994 36.7752 7.49997 35.1143 7.5 33.1019V24.3968C7.49997 22.3843 7.49994 20.7234 7.61049 19.3704C7.7253 17.9652 7.97171 16.6734 8.58994 15.4601C9.54867 13.5785 11.0785 12.0487 12.9601 11.0899C14.1734 10.4717 15.4652 10.2253 16.8704 10.1105C18.2234 9.99994 19.8843 9.99997 21.8968 10ZM22.5001 18.9645L31.0356 27.5L22.5001 36.0355L18.9645 32.5L23.9645 27.5L18.9645 22.5L22.5001 18.9645ZM40 32.5H30V37.5H40V32.5Z" fill="#C4CCD3"/>
</svg>
