<svg width="60" height="60" viewBox="0 0 60 60" fill="none" xmlns="http://www.w3.org/2000/svg">
<path d="M18.7353 8L16.5514 14.4578L10 16.6105V18.5629L16.5514 20.7155L18.7353 27.1734H20.716L22.8998 20.7155L29.4513 18.5629V16.6105L22.8998 14.4578L20.716 8H18.7353Z" fill="#C4CCD3"/>
<path fill-rule="evenodd" clip-rule="evenodd" d="M16.723 30.9641C16.6377 31.6383 16.5937 32.3252 16.5937 33.0221C16.5937 36.8269 17.903 40.3302 20.1017 43.1182L13.0294 50.0895L15.9821 53L23.0544 46.0288C25.8828 48.1961 29.4369 49.4866 33.2969 49.4866C42.5218 49.4866 50 42.1152 50 33.0221C50 23.9291 42.5218 16.5577 33.297 16.5577L33.2969 20.6738L25.9892 23.7609L22.8574 30.9641H16.723ZM27.0332 30.9641H39.5605V35.0802H27.0332V30.9641Z" fill="#C4CCD3"/>
</svg>
