<svg width="60" height="60" viewBox="0 0 60 60" fill="none" xmlns="http://www.w3.org/2000/svg">
<path d="M29 17.9996C29 20.2088 30.7909 21.9996 33 21.9996H50V46.9996C50 51.4179 46.4183 54.9996 42 54.9996H18C13.5817 54.9996 10 51.4179 10 46.9996V12.9996C10.0002 8.58153 13.5819 4.99963 18 4.99963H29V17.9996ZM50 17.9996H33V4.99963L50 17.9996Z" fill="#C4CCD3"/>
<path d="M21.5858 28.5859C22.3668 27.8049 23.6329 27.8049 24.4139 28.5859L39.4139 43.5859C40.195 44.367 40.195 45.633 39.4139 46.414C38.6329 47.1951 37.3668 47.1951 36.5858 46.414L21.5858 31.414C20.8047 30.633 20.8047 29.367 21.5858 28.5859Z" fill="white"/>
<path d="M36.5858 28.5859C37.3668 27.8049 38.6329 27.8049 39.4139 28.5859C40.195 29.367 40.195 30.633 39.4139 31.414L24.4139 46.414C23.6329 47.1951 22.3668 47.1951 21.5858 46.414C20.8047 45.633 20.8047 44.367 21.5858 43.5859L36.5858 28.5859Z" fill="white"/>
</svg>
