<svg width="32" height="32" viewBox="0 0 32 32" fill="none" xmlns="http://www.w3.org/2000/svg">
<path d="M12.667 17.667C14.1114 17.667 15.5425 17.9511 16.877 18.5039C18.2113 19.0567 19.424 19.8674 20.4453 20.8887C21.4665 21.91 22.2773 23.1227 22.8301 24.457C23.3828 25.7915 23.667 27.2226 23.667 28.667C23.6668 29.219 23.219 29.6668 22.667 29.667C22.1148 29.667 21.6672 29.2191 21.667 28.667C21.667 27.4852 21.4336 26.3145 20.9814 25.2227C20.5292 24.131 19.8667 23.1383 19.0312 22.3027C18.1957 21.4672 17.203 20.8048 16.1113 20.3525C15.0195 19.9003 13.8488 19.667 12.667 19.667C11.4852 19.667 10.3145 19.9003 9.22266 20.3525C8.13085 20.8048 7.13838 21.4671 6.30273 22.3027C5.46709 23.1384 4.80483 24.1309 4.35254 25.2227C3.90029 26.3145 3.66699 27.4852 3.66699 28.667C3.66682 29.219 3.21902 29.6668 2.66699 29.667C2.11482 29.667 1.66717 29.2191 1.66699 28.667C1.66699 27.2225 1.95115 25.7916 2.50391 24.457C3.05671 23.1225 3.86729 21.9101 4.88867 20.8887C5.91006 19.8673 7.12254 19.0567 8.45703 18.5039C9.79157 17.9511 11.2225 17.667 12.667 17.667ZM25.6963 20.8887C26.0868 20.4983 26.7198 20.4983 27.1104 20.8887C28.1317 21.91 28.9423 23.1226 29.4951 24.457C30.0478 25.7915 30.332 27.2226 30.332 28.667C30.3317 29.219 29.8841 29.667 29.332 29.667C28.7802 29.6667 28.3323 29.2188 28.332 28.667C28.332 27.4853 28.0996 26.3144 27.6475 25.2227C27.1952 24.1308 26.5319 23.1384 25.6963 22.3027C25.306 21.9123 25.3061 21.2792 25.6963 20.8887ZM20.1855 6.63965C20.3829 6.12415 20.9609 5.8665 21.4766 6.06348C22.5847 6.4874 23.5425 7.23015 24.2285 8.19824C24.9145 9.16649 25.2986 10.3167 25.3311 11.5029C25.3634 12.6889 25.0429 13.8581 24.4111 14.8623C23.7792 15.8663 22.8635 16.6616 21.7803 17.1455C21.2763 17.3701 20.6843 17.1443 20.459 16.6406C20.2339 16.1367 20.4604 15.5449 20.9639 15.3193C21.6859 14.9968 22.2974 14.4671 22.7188 13.7979C23.14 13.1284 23.3526 12.3483 23.3311 11.5576C23.3094 10.7668 23.054 9.99998 22.5967 9.35449C22.1393 8.70907 21.5006 8.21326 20.7617 7.93066C20.2466 7.7332 19.9888 7.15509 20.1855 6.63965ZM12.667 4.33301C15.9804 4.33318 18.6668 7.01956 18.667 10.333C18.667 13.6466 15.9806 16.3328 12.667 16.333C9.35328 16.333 6.66699 13.6467 6.66699 10.333C6.66717 7.01945 9.35339 4.33301 12.667 4.33301ZM12.667 6.33301C10.458 6.33301 8.66717 8.12402 8.66699 10.333C8.66699 12.5421 10.4579 14.333 12.667 14.333C14.876 14.3328 16.667 12.542 16.667 10.333C16.6668 8.12413 14.8759 6.33318 12.667 6.33301Z" fill="#74818C"/>
</svg>
