<svg width="32" height="32" viewBox="0 0 32 32" fill="none" xmlns="http://www.w3.org/2000/svg">
<path d="M12.189 28.7809C9.95497 28.1157 7.96637 26.8809 6.39175 25.2447C6.97917 24.5485 7.33317 23.6489 7.33317 22.6667C7.33317 20.4576 5.54231 18.6667 3.33317 18.6667C3.19954 18.6667 3.06743 18.6733 2.93716 18.6861C2.7597 17.8185 2.6665 16.9202 2.6665 16.0001C2.6665 14.6063 2.88035 13.2625 3.27703 11.9997C3.29571 11.9999 3.31442 12.0001 3.33317 12.0001C5.54231 12.0001 7.33317 10.2092 7.33317 8.00008C7.33317 7.36588 7.18557 6.76621 6.9229 6.23342C8.46484 4.79968 10.3468 3.72669 12.4346 3.14877C13.0961 4.44547 14.4443 5.33343 15.9998 5.33343C17.5554 5.33343 18.9036 4.44547 19.5651 3.14877C21.6528 3.72669 23.5348 4.79968 25.0768 6.23342C24.8141 6.76621 24.6665 7.36588 24.6665 8.00008C24.6665 10.2092 26.4574 12.0001 28.6665 12.0001C28.6852 12.0001 28.704 11.9999 28.7226 11.9997C29.1193 13.2625 29.3332 14.6063 29.3332 16.0001C29.3332 16.9202 29.24 17.8185 29.0625 18.6861C28.9322 18.6733 28.8002 18.6667 28.6665 18.6667C26.4574 18.6667 24.6665 20.4576 24.6665 22.6667C24.6665 23.6489 25.0205 24.5485 25.6079 25.2447C24.0333 26.8809 22.0447 28.1157 19.8106 28.7809C19.295 27.168 17.7838 26.0001 15.9998 26.0001C14.2158 26.0001 12.7046 27.168 12.189 28.7809Z" stroke="#74818C" stroke-width="2" stroke-linejoin="round"/>
<path d="M16.0002 20.6667C18.5775 20.6667 20.6668 18.5773 20.6668 16C20.6668 13.4227 18.5775 11.3333 16.0002 11.3333C13.4228 11.3333 11.3335 13.4227 11.3335 16C11.3335 18.5773 13.4228 20.6667 16.0002 20.6667Z" stroke="#74818C" stroke-width="2" stroke-linejoin="round"/>
</svg>
